<svg width="1251" height="860" viewBox="0 0 1251 860" fill="none" xmlns="http://www.w3.org/2000/svg">
<rect x="33" y="3" width="1215" height="815" rx="72" fill="#A66968" stroke="#5F1731" stroke-width="6"/>
<rect y="39" width="1221" height="821" rx="75" fill="#FFD3B9"/>
<rect y="39" width="1221" height="821" rx="75" stroke="#5F1731"/>
<path d="M134.41 263V172H183.03C195.597 172 204.87 174.253 210.85 178.76C216.83 183.18 219.82 188.857 219.82 195.79C219.82 200.383 218.52 204.5 215.92 208.14C213.407 211.693 209.723 214.51 204.87 216.59C200.017 218.67 194.037 219.71 186.93 219.71L189.53 212.69C196.637 212.69 202.747 213.687 207.86 215.68C213.06 217.673 217.047 220.577 219.82 224.39C222.68 228.117 224.11 232.623 224.11 237.91C224.11 245.797 220.817 251.95 214.23 256.37C207.73 260.79 198.197 263 185.63 263H134.41ZM164.57 241.55H183.03C186.41 241.55 188.923 240.943 190.57 239.73C192.303 238.517 193.17 236.74 193.17 234.4C193.17 232.06 192.303 230.283 190.57 229.07C188.923 227.857 186.41 227.25 183.03 227.25H162.49V206.97H178.87C182.337 206.97 184.85 206.407 186.41 205.28C188.057 204.067 188.88 202.377 188.88 200.21C188.88 197.957 188.057 196.267 186.41 195.14C184.85 194.013 182.337 193.45 178.87 193.45H164.57V241.55ZM263.687 264.3C258.054 264.3 252.94 263.173 248.347 260.92C243.84 258.58 240.287 254.983 237.687 250.13C235.087 245.19 233.787 238.863 233.787 231.15V191.89H263.167V226.08C263.167 231.107 263.99 234.617 265.637 236.61C267.284 238.603 269.537 239.6 272.397 239.6C274.13 239.6 275.734 239.167 277.207 238.3C278.767 237.347 280.024 235.83 280.977 233.75C281.93 231.583 282.407 228.767 282.407 225.3V191.89H311.787V263H283.837V242.46L289.427 248.05C286.914 253.597 283.317 257.713 278.637 260.4C274.044 263 269.06 264.3 263.687 264.3ZM340.418 289.52C336.518 289.52 332.532 288.913 328.458 287.7C324.472 286.573 321.265 285.057 318.838 283.15L328.588 263C330.062 264.127 331.708 265.037 333.528 265.73C335.435 266.423 337.255 266.77 338.988 266.77C341.588 266.77 343.582 266.207 344.968 265.08C346.355 264.04 347.482 262.437 348.348 260.27L351.338 252.73L353.418 249.87L376.168 191.89H403.988L374.738 264.43C372.138 270.93 369.105 276 365.638 279.64C362.258 283.28 358.445 285.837 354.198 287.31C350.038 288.783 345.445 289.52 340.418 289.52ZM347.308 266.25L316.368 191.89H346.528L367.848 247.27L347.308 266.25Z" fill="#AB3687"/>
<path d="M976.59 256.82C968.79 256.82 961.857 254.957 955.79 251.23C949.81 247.503 945.087 242.13 941.62 235.11C938.153 228.09 936.42 219.553 936.42 209.5C936.42 199.447 938.153 190.91 941.62 183.89C945.087 176.87 949.81 171.497 955.79 167.77C961.857 164.043 968.79 162.18 976.59 162.18C984.303 162.18 991.15 164.043 997.13 167.77C1003.2 171.497 1007.96 176.87 1011.43 183.89C1014.9 190.91 1016.63 199.447 1016.63 209.5C1016.63 219.553 1014.9 228.09 1011.43 235.11C1007.96 242.13 1003.2 247.503 997.13 251.23C991.15 254.957 984.303 256.82 976.59 256.82ZM976.59 235.76C979.363 235.76 981.79 234.893 983.87 233.16C986.037 231.427 987.727 228.653 988.94 224.84C990.153 220.94 990.76 215.827 990.76 209.5C990.76 203.087 990.153 197.973 988.94 194.16C987.727 190.347 986.037 187.573 983.87 185.84C981.79 184.107 979.363 183.24 976.59 183.24C973.817 183.24 971.347 184.107 969.18 185.84C967.1 187.573 965.41 190.347 964.11 194.16C962.897 197.973 962.29 203.087 962.29 209.5C962.29 215.827 962.897 220.94 964.11 224.84C965.41 228.653 967.1 231.427 969.18 233.16C971.347 234.893 973.817 235.76 976.59 235.76ZM1038.8 255L1100.94 164H1119.66L1057.52 255H1038.8ZM1047.12 213.27C1042.7 213.27 1038.72 212.273 1035.16 210.28C1031.61 208.287 1028.84 205.427 1026.84 201.7C1024.85 197.887 1023.85 193.337 1023.85 188.05C1023.85 182.763 1024.85 178.257 1026.84 174.53C1028.84 170.803 1031.61 167.943 1035.16 165.95C1038.72 163.87 1042.7 162.83 1047.12 162.83C1051.63 162.83 1055.62 163.87 1059.08 165.95C1062.64 167.943 1065.41 170.803 1067.4 174.53C1069.48 178.257 1070.52 182.763 1070.52 188.05C1070.52 193.25 1069.48 197.757 1067.4 201.57C1065.41 205.383 1062.64 208.287 1059.08 210.28C1055.62 212.273 1051.63 213.27 1047.12 213.27ZM1047.25 200.92C1049.42 200.92 1051.2 199.923 1052.58 197.93C1054.06 195.937 1054.79 192.643 1054.79 188.05C1054.79 183.457 1054.06 180.163 1052.58 178.17C1051.2 176.177 1049.42 175.18 1047.25 175.18C1045.09 175.18 1043.22 176.177 1041.66 178.17C1040.19 180.163 1039.45 183.457 1039.45 188.05C1039.45 192.643 1040.19 195.937 1041.66 197.93C1043.22 199.923 1045.09 200.92 1047.25 200.92ZM1111.34 256.17C1106.84 256.17 1102.81 255.173 1099.25 253.18C1095.79 251.187 1093.06 248.327 1091.06 244.6C1089.07 240.787 1088.07 236.237 1088.07 230.95C1088.07 225.663 1089.07 221.157 1091.06 217.43C1093.06 213.703 1095.79 210.843 1099.25 208.85C1102.81 206.77 1106.84 205.73 1111.34 205.73C1115.85 205.73 1119.84 206.77 1123.3 208.85C1126.86 210.843 1129.63 213.703 1131.62 217.43C1133.7 221.157 1134.74 225.663 1134.74 230.95C1134.74 236.237 1133.7 240.787 1131.62 244.6C1129.63 248.327 1126.86 251.187 1123.3 253.18C1119.84 255.173 1115.85 256.17 1111.34 256.17ZM1111.34 243.82C1113.51 243.82 1115.33 242.823 1116.8 240.83C1118.28 238.837 1119.01 235.543 1119.01 230.95C1119.01 226.357 1118.28 223.063 1116.8 221.07C1115.33 219.077 1113.51 218.08 1111.34 218.08C1109.26 218.08 1107.44 219.077 1105.88 221.07C1104.41 223.063 1103.67 226.357 1103.67 230.95C1103.67 235.543 1104.41 238.837 1105.88 240.83C1107.44 242.823 1109.26 243.82 1111.34 243.82Z" fill="#AB3687"/>
<path d="M976.59 723.82C968.79 723.82 961.857 721.957 955.79 718.23C949.81 714.503 945.087 709.13 941.62 702.11C938.153 695.09 936.42 686.553 936.42 676.5C936.42 666.447 938.153 657.91 941.62 650.89C945.087 643.87 949.81 638.497 955.79 634.77C961.857 631.043 968.79 629.18 976.59 629.18C984.303 629.18 991.15 631.043 997.13 634.77C1003.2 638.497 1007.96 643.87 1011.43 650.89C1014.9 657.91 1016.63 666.447 1016.63 676.5C1016.63 686.553 1014.9 695.09 1011.43 702.11C1007.96 709.13 1003.2 714.503 997.13 718.23C991.15 721.957 984.303 723.82 976.59 723.82ZM976.59 702.76C979.363 702.76 981.79 701.893 983.87 700.16C986.037 698.427 987.727 695.653 988.94 691.84C990.153 687.94 990.76 682.827 990.76 676.5C990.76 670.087 990.153 664.973 988.94 661.16C987.727 657.347 986.037 654.573 983.87 652.84C981.79 651.107 979.363 650.24 976.59 650.24C973.817 650.24 971.347 651.107 969.18 652.84C967.1 654.573 965.41 657.347 964.11 661.16C962.897 664.973 962.29 670.087 962.29 676.5C962.29 682.827 962.897 687.94 964.11 691.84C965.41 695.653 967.1 698.427 969.18 700.16C971.347 701.893 973.817 702.76 976.59 702.76ZM1038.8 722L1100.94 631H1119.66L1057.52 722H1038.8ZM1047.12 680.27C1042.7 680.27 1038.72 679.273 1035.16 677.28C1031.61 675.287 1028.84 672.427 1026.84 668.7C1024.85 664.887 1023.85 660.337 1023.85 655.05C1023.85 649.763 1024.85 645.257 1026.84 641.53C1028.84 637.803 1031.61 634.943 1035.16 632.95C1038.72 630.87 1042.7 629.83 1047.12 629.83C1051.63 629.83 1055.62 630.87 1059.08 632.95C1062.64 634.943 1065.41 637.803 1067.4 641.53C1069.48 645.257 1070.52 649.763 1070.52 655.05C1070.52 660.25 1069.48 664.757 1067.4 668.57C1065.41 672.383 1062.64 675.287 1059.08 677.28C1055.62 679.273 1051.63 680.27 1047.12 680.27ZM1047.25 667.92C1049.42 667.92 1051.2 666.923 1052.58 664.93C1054.06 662.937 1054.79 659.643 1054.79 655.05C1054.79 650.457 1054.06 647.163 1052.58 645.17C1051.2 643.177 1049.42 642.18 1047.25 642.18C1045.09 642.18 1043.22 643.177 1041.66 645.17C1040.19 647.163 1039.45 650.457 1039.45 655.05C1039.45 659.643 1040.19 662.937 1041.66 664.93C1043.22 666.923 1045.09 667.92 1047.25 667.92ZM1111.34 723.17C1106.84 723.17 1102.81 722.173 1099.25 720.18C1095.79 718.187 1093.06 715.327 1091.06 711.6C1089.07 707.787 1088.07 703.237 1088.07 697.95C1088.07 692.663 1089.07 688.157 1091.06 684.43C1093.06 680.703 1095.79 677.843 1099.25 675.85C1102.81 673.77 1106.84 672.73 1111.34 672.73C1115.85 672.73 1119.84 673.77 1123.3 675.85C1126.86 677.843 1129.63 680.703 1131.62 684.43C1133.7 688.157 1134.74 692.663 1134.74 697.95C1134.74 703.237 1133.7 707.787 1131.62 711.6C1129.63 715.327 1126.86 718.187 1123.3 720.18C1119.84 722.173 1115.85 723.17 1111.34 723.17ZM1111.34 710.82C1113.51 710.82 1115.33 709.823 1116.8 707.83C1118.28 705.837 1119.01 702.543 1119.01 697.95C1119.01 693.357 1118.28 690.063 1116.8 688.07C1115.33 686.077 1113.51 685.08 1111.34 685.08C1109.26 685.08 1107.44 686.077 1105.88 688.07C1104.41 690.063 1103.67 693.357 1103.67 697.95C1103.67 702.543 1104.41 705.837 1105.88 707.83C1107.44 709.823 1109.26 710.82 1111.34 710.82Z" fill="#AB3687"/>
<path d="M168.34 480.08C160.713 480.08 153.347 479.213 146.24 477.48C139.133 475.747 133.283 473.493 128.69 470.72L138.57 448.36C142.903 450.873 147.713 452.91 153 454.47C158.373 455.943 163.573 456.68 168.6 456.68C171.547 456.68 173.843 456.507 175.49 456.16C177.223 455.727 178.48 455.163 179.26 454.47C180.04 453.69 180.43 452.78 180.43 451.74C180.43 450.093 179.52 448.793 177.7 447.84C175.88 446.887 173.453 446.107 170.42 445.5C167.473 444.807 164.223 444.113 160.67 443.42C157.117 442.64 153.52 441.643 149.88 440.43C146.327 439.217 143.033 437.613 140 435.62C137.053 433.627 134.67 431.027 132.85 427.82C131.03 424.527 130.12 420.453 130.12 415.6C130.12 409.967 131.68 404.853 134.8 400.26C138.007 395.58 142.73 391.853 148.97 389.08C155.297 386.307 163.14 384.92 172.5 384.92C178.653 384.92 184.72 385.57 190.7 386.87C196.68 388.17 202.053 390.163 206.82 392.85L197.59 415.08C193.083 412.827 188.707 411.137 184.46 410.01C180.3 408.883 176.227 408.32 172.24 408.32C169.293 408.32 166.953 408.58 165.22 409.1C163.487 409.62 162.23 410.313 161.45 411.18C160.757 412.047 160.41 413 160.41 414.04C160.41 415.6 161.32 416.857 163.14 417.81C164.96 418.677 167.343 419.413 170.29 420.02C173.323 420.627 176.617 421.277 180.17 421.97C183.81 422.663 187.407 423.617 190.96 424.83C194.513 426.043 197.763 427.647 200.71 429.64C203.743 431.633 206.17 434.233 207.99 437.44C209.81 440.647 210.72 444.633 210.72 449.4C210.72 454.947 209.117 460.06 205.91 464.74C202.79 469.333 198.11 473.06 191.87 475.92C185.63 478.693 177.787 480.08 168.34 480.08ZM248.579 479.3C242.946 479.3 237.833 478.173 233.239 475.92C228.733 473.58 225.179 469.983 222.579 465.13C219.979 460.19 218.679 453.863 218.679 446.15V406.89H248.059V441.08C248.059 446.107 248.883 449.617 250.529 451.61C252.176 453.603 254.429 454.6 257.289 454.6C259.023 454.6 260.626 454.167 262.099 453.3C263.659 452.347 264.916 450.83 265.869 448.75C266.823 446.583 267.299 443.767 267.299 440.3V406.89H296.679V478H268.729V457.46L274.319 463.05C271.806 468.597 268.209 472.713 263.529 475.4C258.936 478 253.953 479.3 248.579 479.3ZM357.161 479.3C351.008 479.3 345.894 478 341.821 475.4C337.834 472.713 334.888 468.683 332.981 463.31C331.074 457.85 330.121 450.917 330.121 442.51C330.121 433.93 330.988 426.953 332.721 421.58C334.541 416.12 337.444 412.09 341.431 409.49C345.418 406.89 350.661 405.59 357.161 405.59C363.401 405.59 369.121 407.107 374.321 410.14C379.521 413.087 383.681 417.333 386.801 422.88C389.921 428.34 391.481 434.883 391.481 442.51C391.481 450.137 389.921 456.723 386.801 462.27C383.681 467.73 379.521 471.933 374.321 474.88C369.121 477.827 363.401 479.3 357.161 479.3ZM309.711 503.22V406.89H337.661V416.51L337.791 442.51L339.091 468.51V503.22H309.711ZM350.141 456.42C352.308 456.42 354.258 455.9 355.991 454.86C357.724 453.82 359.111 452.26 360.151 450.18C361.191 448.1 361.711 445.543 361.711 442.51C361.711 439.39 361.191 436.79 360.151 434.71C359.111 432.63 357.724 431.07 355.991 430.03C354.258 428.99 352.308 428.47 350.141 428.47C347.974 428.47 346.024 428.99 344.291 430.03C342.558 431.07 341.171 432.63 340.131 434.71C339.091 436.79 338.571 439.39 338.571 442.51C338.571 445.543 339.091 448.1 340.131 450.18C341.171 452.26 342.558 453.82 344.291 454.86C346.024 455.9 347.974 456.42 350.141 456.42ZM448.186 479.3C442.033 479.3 436.92 478 432.846 475.4C428.86 472.713 425.913 468.683 424.006 463.31C422.1 457.85 421.146 450.917 421.146 442.51C421.146 433.93 422.013 426.953 423.746 421.58C425.566 416.12 428.47 412.09 432.456 409.49C436.443 406.89 441.686 405.59 448.186 405.59C454.426 405.59 460.146 407.107 465.346 410.14C470.546 413.087 474.706 417.333 477.826 422.88C480.946 428.34 482.506 434.883 482.506 442.51C482.506 450.137 480.946 456.723 477.826 462.27C474.706 467.73 470.546 471.933 465.346 474.88C460.146 477.827 454.426 479.3 448.186 479.3ZM400.736 503.22V406.89H428.686V416.51L428.816 442.51L430.116 468.51V503.22H400.736ZM441.166 456.42C443.333 456.42 445.283 455.9 447.016 454.86C448.75 453.82 450.136 452.26 451.176 450.18C452.216 448.1 452.736 445.543 452.736 442.51C452.736 439.39 452.216 436.79 451.176 434.71C450.136 432.63 448.75 431.07 447.016 430.03C445.283 428.99 443.333 428.47 441.166 428.47C439 428.47 437.05 428.99 435.316 430.03C433.583 431.07 432.196 432.63 431.156 434.71C430.116 436.79 429.596 439.39 429.596 442.51C429.596 445.543 430.116 448.1 431.156 450.18C432.196 452.26 433.583 453.82 435.316 454.86C437.05 455.9 439 456.42 441.166 456.42ZM491.762 478V381.54H521.142V478H491.762ZM549.764 504.52C545.864 504.52 541.877 503.913 537.804 502.7C533.817 501.573 530.611 500.057 528.184 498.15L537.934 478C539.407 479.127 541.054 480.037 542.874 480.73C544.781 481.423 546.601 481.77 548.334 481.77C550.934 481.77 552.927 481.207 554.314 480.08C555.701 479.04 556.827 477.437 557.694 475.27L560.684 467.73L562.764 464.87L585.514 406.89H613.334L584.084 479.43C581.484 485.93 578.451 491 574.984 494.64C571.604 498.28 567.791 500.837 563.544 502.31C559.384 503.783 554.791 504.52 549.764 504.52ZM556.654 481.25L525.714 406.89H555.874L577.194 462.27L556.654 481.25Z" fill="#AB3687"/>
<path d="M962.68 480V398.23L973.73 408.89H945.78V389H988.42V480H962.68ZM1006.79 480V389H1053.33C1065.29 389 1074.21 391.21 1080.11 395.63C1086 399.963 1088.95 405.683 1088.95 412.79C1088.95 417.47 1087.69 421.587 1085.18 425.14C1082.75 428.607 1079.28 431.38 1074.78 433.46C1070.36 435.453 1065.07 436.45 1058.92 436.45L1061.52 430.21C1067.93 430.21 1073.52 431.207 1078.29 433.2C1083.05 435.107 1086.74 437.923 1089.34 441.65C1092.02 445.29 1093.37 449.753 1093.37 455.04C1093.37 462.927 1090.16 469.08 1083.75 473.5C1077.42 477.833 1068.15 480 1055.93 480H1006.79ZM1032.27 461.41H1053.85C1058.27 461.41 1061.6 460.673 1063.86 459.2C1066.2 457.64 1067.37 455.3 1067.37 452.18C1067.37 449.06 1066.2 446.763 1063.86 445.29C1061.6 443.73 1058.27 442.95 1053.85 442.95H1030.45V425.14H1049.95C1054.28 425.14 1057.53 424.403 1059.7 422.93C1061.86 421.457 1062.95 419.247 1062.95 416.3C1062.95 413.353 1061.86 411.187 1059.7 409.8C1057.53 408.327 1054.28 407.59 1049.95 407.59H1032.27V461.41Z" fill="#AB3687"/>
<path d="M168.34 724.08C160.713 724.08 153.347 723.213 146.24 721.48C139.133 719.747 133.283 717.493 128.69 714.72L138.57 692.36C142.903 694.873 147.713 696.91 153 698.47C158.373 699.943 163.573 700.68 168.6 700.68C171.547 700.68 173.843 700.507 175.49 700.16C177.223 699.727 178.48 699.163 179.26 698.47C180.04 697.69 180.43 696.78 180.43 695.74C180.43 694.093 179.52 692.793 177.7 691.84C175.88 690.887 173.453 690.107 170.42 689.5C167.473 688.807 164.223 688.113 160.67 687.42C157.117 686.64 153.52 685.643 149.88 684.43C146.327 683.217 143.033 681.613 140 679.62C137.053 677.627 134.67 675.027 132.85 671.82C131.03 668.527 130.12 664.453 130.12 659.6C130.12 653.967 131.68 648.853 134.8 644.26C138.007 639.58 142.73 635.853 148.97 633.08C155.297 630.307 163.14 628.92 172.5 628.92C178.653 628.92 184.72 629.57 190.7 630.87C196.68 632.17 202.053 634.163 206.82 636.85L197.59 659.08C193.083 656.827 188.707 655.137 184.46 654.01C180.3 652.883 176.227 652.32 172.24 652.32C169.293 652.32 166.953 652.58 165.22 653.1C163.487 653.62 162.23 654.313 161.45 655.18C160.757 656.047 160.41 657 160.41 658.04C160.41 659.6 161.32 660.857 163.14 661.81C164.96 662.677 167.343 663.413 170.29 664.02C173.323 664.627 176.617 665.277 180.17 665.97C183.81 666.663 187.407 667.617 190.96 668.83C194.513 670.043 197.763 671.647 200.71 673.64C203.743 675.633 206.17 678.233 207.99 681.44C209.81 684.647 210.72 688.633 210.72 693.4C210.72 698.947 209.117 704.06 205.91 708.74C202.79 713.333 198.11 717.06 191.87 719.92C185.63 722.693 177.787 724.08 168.34 724.08ZM258.199 723.3C249.533 723.3 241.949 721.697 235.449 718.49C229.036 715.283 224.053 710.907 220.499 705.36C216.946 699.727 215.169 693.4 215.169 686.38C215.169 679.187 216.903 672.817 220.369 667.27C223.923 661.723 228.733 657.39 234.799 654.27C240.953 651.15 247.843 649.59 255.469 649.59C262.489 649.59 268.946 650.977 274.839 653.75C280.819 656.523 285.586 660.64 289.139 666.1C292.779 671.56 294.599 678.32 294.599 686.38C294.599 687.42 294.556 688.59 294.469 689.89C294.383 691.103 294.296 692.23 294.209 693.27H239.479V679.1H278.609L267.559 682.87C267.559 680.097 267.039 677.757 265.999 675.85C265.046 673.857 263.703 672.34 261.969 671.3C260.236 670.173 258.156 669.61 255.729 669.61C253.303 669.61 251.179 670.173 249.359 671.3C247.626 672.34 246.283 673.857 245.329 675.85C244.376 677.757 243.899 680.097 243.899 682.87V687.29C243.899 690.323 244.506 692.923 245.719 695.09C246.933 697.257 248.666 698.903 250.919 700.03C253.173 701.07 255.903 701.59 259.109 701.59C262.403 701.59 265.089 701.157 267.169 700.29C269.336 699.423 271.589 698.123 273.929 696.39L289.269 711.86C285.803 715.587 281.513 718.447 276.399 720.44C271.373 722.347 265.306 723.3 258.199 723.3ZM303.871 722V625.54H333.251V722H303.871ZM346.273 722V625.54H375.653V722H346.273Z" fill="#AB3687"/>
<path d="M1119.44 79H912.5C982.5 88.5 1129.2 112.4 1156 132C1189.5 156.5 1176 575 1193.5 366.5C1203.97 241.708 1188.05 157.459 1171.68 111.911C1163.94 90.3552 1142.35 79 1119.44 79Z" fill="#DB9F95"/>
<path d="M107.415 820.532L314.355 820.532C244.355 811.032 97.6555 787.132 70.8555 767.532C37.3555 743.032 50.8555 324.532 33.3555 533.032C22.8813 657.824 38.808 742.073 55.1718 787.62C62.9163 809.176 84.5099 820.532 107.415 820.532Z" fill="#DB9F95"/>
</svg>
